<svg width="34" height="34" viewBox="0 0 34 34" fill="none" xmlns="http://www.w3.org/2000/svg">
<g clip-path="url(#clip0_1_687)">
<path d="M10.0763 22.8336L4.24268 17L10.0763 11.1664L15.9099 17L10.0763 22.8336ZM16.9706 29.7279L11.137 23.8943L16.9706 18.0607L22.8042 23.8943L16.9706 29.7279ZM16.9706 15.9393L11.137 10.1057L16.9706 4.27208L22.8042 10.1057L16.9706 15.9393ZM23.8649 22.8336L18.0313 17L23.8649 11.1664L29.6985 17L23.8649 22.8336ZM10.0763 20.7123L13.7886 17L10.0763 13.2877L6.364 17L10.0763 20.7123ZM16.9706 13.818L20.6829 10.1057L16.9706 6.3934L13.2583 10.1057L16.9706 13.818ZM23.8649 20.7123L27.5772 17L23.8649 13.2877L20.1526 17L23.8649 20.7123ZM16.9706 27.6066L20.6829 23.8943L16.9706 20.182L13.2583 23.8943L16.9706 27.6066Z" fill="white"/>
</g>
<defs>
<clipPath id="clip0_1_687">
<rect width="24" height="24" fill="white" transform="translate(0 17) rotate(-45)"/>
</clipPath>
</defs>
</svg>
