<svg width="1728" height="1117" viewBox="0 0 1728 1117" fill="none" xmlns="http://www.w3.org/2000/svg">
<path opacity="0.51" d="M469.412 170.4C416.865 69.7671 537.952 -37.7269 649.901 -58.3108C761.849 -78.8947 887.505 -62.8847 974.322 -133.785C1093.12 -227.556 1086.27 -431.108 1216.49 -506.583C1321.59 -566.048 1460.95 -508.87 1570.62 -556.899C1707.7 -616.364 1746.53 -808.481 1883.61 -872.52C1990.99 -925.123 2132.64 -865.659 2187.47 -760.452C2242.3 -655.246 2217.17 -518.019 2141.78 -424.248C2082.38 -353.347 1993.28 -300.745 1956.72 -216.122C1899.61 -81.1824 1990.99 81.2021 1936.16 218.428C1837.92 470.01 1371.85 394.536 1289.6 652.978C1271.33 710.156 1278.18 771.908 1273.61 833.66C1259.9 1012.05 1134.25 1167.58 978.89 1256.77C823.533 1345.97 640.762 1375.7 462.559 1389.43C389.45 1394 311.771 1396.29 247.801 1361.98C186.115 1329.96 144.991 1272.78 110.721 1211.03C-104.036 824.512 -193.137 316.774 469.412 170.4Z" fill="#0091FF"/>
</svg>
